<svg viewBox="0 -10 380 250" xmlns="http://www.w3.org/2000/svg">
    <!-- Primeira letra B -->
    <path d="M10,20 h80 c25,0 45,15 45,40 c0,15 -10,25 -20,30 c15,5 25,18 25,35 c0,25 -20,45 -50,45 h-80 v-150 z m35,30 v30 h40 c10,0 20,-5 20,-15 c0,-10 -10,-15 -20,-15 h-40 z m0,60 v30 h45 c15,0 25,-8 25,-15 c0,-10 -10,-15 -25,-15 h-45 z" />
    
    <!-- Símbolo & -->
    <path d="M160,105 l20,-30 h-15 c-10,0 -15,-5 -15,-15 c0,-15 15,-15 25,-15 h30 l-25,-25 h-35 c-25,0 -45,15 -45,45 c0,20 15,35 30,40 z" />
    <path d="M220,105 l40,-40 h-20 c-15,0 -20,-5 -20,-15 c0,-10 10,-15 20,-15 h35 l15,-15 h-80 c-25,0 -40,20 -40,40 c0,25 20,35 40,45 z" />
    
    <!-- Segunda letra B -->
    <path d="M250,20 h80 c25,0 45,15 45,40 c0,15 -10,25 -20,30 c15,5 25,18 25,35 c0,25 -20,45 -50,45 h-80 v-150 z m35,30 v30 h40 c10,0 20,-5 20,-15 c0,-10 -10,-15 -20,-15 h-40 z m0,60 v30 h45 c15,0 25,-8 25,-15 c0,-10 -10,-15 -25,-15 h-45 z" />
    
    <!-- Linhas e Texto Inferior -->
    <rect x="5" y="180" width="370" height="5" />
    <text x="187" y="222" fontFamily="Arial, sans-serif" fontWeight="900" fontSize="32" letterSpacing="12" textAnchor="middle">ILUMINAÇÃO</text>
    <rect x="5" y="235" width="370" height="5" />
</svg>
