<svg width="1236" height="645" viewBox="0 0 1236 645" fill="none" xmlns="http://www.w3.org/2000/svg">
<path fill-rule="evenodd" clip-rule="evenodd" d="M273.413 0.898594C272.173 1.39659 210.796 46.6916 137.021 101.554C29.1488 181.77 2.61785 201.938 1.52585 204.552C-0.549151 209.518 -0.488155 511.361 1.58885 516.332C4.21985 522.628 5.58784 522.866 39.1538 522.866C65.8148 522.866 69.5338 522.672 71.8398 521.162C77.4098 517.512 77.1678 524.048 77.1678 377.414V241.898L79.9178 238.94C81.4308 237.313 125.193 204.354 177.168 165.697C267.169 98.7576 271.893 95.3936 276.392 95.0436L281.116 94.6756L333.654 132.837C362.55 153.825 387.424 171.64 388.93 172.425C391.192 173.605 400.065 173.855 439.963 173.86L488.259 173.866L490.713 171.411C494.041 168.084 493.927 163.941 490.418 160.702C485.986 156.61 284.311 2.8216 281.356 1.2806C278.301 -0.313403 276.63 -0.394406 273.413 0.898594ZM189.108 222.641C185.311 224.578 131.458 263.589 126.795 267.783C120.867 273.113 121.168 266.153 121.168 397.911V519.02L124.091 521.943L127.014 524.866H158.168H189.322L192.245 521.943L195.168 519.02V474.52V430.019L197.746 426.956L200.324 423.892L309.666 423.629L419.007 423.366L421.588 420.942L424.168 418.517V385.646V352.775L421.713 350.321L419.259 347.866L310.963 347.862C205.384 347.859 202.588 347.81 199.472 345.91C195.285 343.357 194.963 341.301 195.351 319.626C195.653 302.743 195.774 301.81 197.946 299.641L200.223 297.366L310.284 296.866L420.345 296.366L422.257 294.005C424.052 291.788 424.168 289.648 424.168 258.844V226.044L421.091 223.455L418.015 220.866H305.303C199.317 220.866 192.383 220.972 189.108 222.641ZM589.168 221.928C539.733 228.002 495.958 264.977 480.913 313.366C475.959 329.298 475.668 332.742 475.668 375.366C475.668 418.081 475.734 418.81 481.247 436.805C484.068 446.012 491.027 460.258 497.195 469.452C503.927 479.486 520.317 495.786 530.598 502.671C543.777 511.498 560.037 518.392 575.668 521.781C587.87 524.426 602.333 524.849 680.168 524.836C758.882 524.823 761.815 524.755 765.974 522.868C769.769 521.145 819.839 484.981 826.05 479.477C827.36 478.316 829.263 475.566 830.278 473.366C832.005 469.624 832.125 465.607 832.146 411.039L832.168 352.712L829.245 349.789L826.322 346.866H766.834H707.346L704.699 350.012L702.052 353.157L702.36 372.6L702.668 392.043L705.474 394.455C708.255 396.845 708.474 396.866 730.224 396.866C758.214 396.866 756.168 395.379 756.168 415.717C756.168 424.161 755.677 432.034 755.03 433.967C753.309 439.107 749.524 443.632 744.86 446.125L740.668 448.366H673.168C610.717 448.366 605.182 448.229 599.168 446.531C578.585 440.719 561.677 424.7 554.431 404.144C551.813 396.717 551.688 395.508 551.678 377.366C551.667 357.381 552.278 353.505 557.346 341.366C564.269 324.783 580.206 309.18 597.328 302.223C610.558 296.847 610.119 296.866 720.806 296.866C833.458 296.866 827.393 297.2 830.694 290.817C832.023 288.245 832.21 283.474 831.961 258.412L831.668 229.024L829.168 226.35C823.731 220.535 830.946 220.855 708.468 220.997C646.428 221.07 592.743 221.488 589.168 221.928ZM885.418 222.402L883.168 223.979V372.768C883.168 515.641 883.241 521.622 884.997 523.211C886.622 524.682 890.558 524.866 920.342 524.866C951.542 524.866 953.972 524.74 955.513 523.037C956.996 521.399 957.168 516.992 957.168 480.728C957.168 449.875 957.466 439.841 958.421 438.535C959.589 436.937 965.386 436.84 1044.69 437.094L1129.71 437.366L1136.21 440.568C1148.25 446.493 1157.76 458.879 1160.16 471.752C1160.72 474.715 1161.17 487.177 1161.17 499.446C1161.17 521.363 1161.21 521.78 1163.39 523.309C1166.56 525.531 1230.71 525.656 1233.73 523.446C1235.59 522.083 1235.67 520.479 1235.67 483.196C1235.67 440.101 1235.46 438.261 1229.3 426.369C1222.48 413.217 1209.59 403.337 1194.67 399.819L1187.67 398.168L1192.63 397.424C1199.54 396.387 1204.56 394.279 1212.5 389.081C1222.98 382.216 1231.06 370.633 1234.28 357.866C1236.26 350.035 1236.28 273.873 1234.31 265.866C1229.43 246.033 1214.31 229.96 1194.17 223.214C1188.94 221.462 1181.31 221.359 1038.17 221.098C902.438 220.851 887.447 220.979 885.418 222.402ZM1145.71 299.532C1151.85 302.817 1157.78 309.835 1159.6 315.953C1161.58 322.606 1161.62 335.974 1159.69 342.478C1157.81 348.804 1152.56 354.955 1146.44 357.993L1141.67 360.366L1051.44 360.642C961.364 360.917 961.216 360.914 959.15 358.848C957.14 356.838 957.089 355.965 957.374 328.241C957.653 301.154 957.768 299.629 959.644 298.259C961.338 297.021 974.457 296.854 1051.64 297.091L1141.67 297.366L1145.71 299.532ZM987.668 555.435C982.872 557.923 982.772 558.43 986.117 563.292C989.137 567.681 989.387 567.826 991.449 566.382C994.218 564.442 998.757 564.455 1004.29 566.418C1006.7 567.272 1010.76 567.989 1013.32 568.013C1017.67 568.054 1024.53 565.701 1025.74 563.753C1026.03 563.274 1024.87 560.847 1023.16 558.359C1020.2 554.049 1019.95 553.907 1017.89 555.35C1015.14 557.274 1010.59 557.28 1005.17 555.366C999.671 553.427 991.477 553.459 987.668 555.435ZM178.334 573.339C162.978 576.819 154.992 586.32 154.992 601.105C154.992 613.845 161.028 622.035 174.023 626.925C181.581 629.769 198.13 629.333 205.338 626.1C210.014 624.003 218.168 617.419 218.168 615.74C218.168 615.249 215.342 613.454 211.888 611.75L205.607 608.653L202.349 611.696C195.631 617.972 181.841 618.099 175.254 611.946C169.091 606.19 169.134 594.597 175.337 589.378C182.586 583.278 195.357 583.503 202.152 589.851L205.293 592.786L211.731 589.611C215.271 587.865 218.168 586.122 218.168 585.736C218.168 583.955 208.403 576.724 203.54 574.904C196.254 572.178 186.208 571.554 178.334 573.339ZM279.289 572.936C262.735 575.862 253.851 585.578 253.746 600.868C253.701 607.434 254.077 609.055 256.765 613.868C262.357 623.879 272.804 628.875 288.1 628.854C309.354 628.825 321.605 619.866 322.912 603.395C324.327 585.575 312.628 573.857 292.048 572.479C287.989 572.207 282.247 572.413 279.289 572.936ZM589.039 572.822C570.383 576.222 560.052 590.709 564.138 607.741C567.653 622.393 580.53 629.64 601.35 628.682C617.765 627.927 628.296 621.113 631.828 608.962C636.082 594.329 629.081 580.344 614.831 575.013C608.465 572.631 595.929 571.566 589.039 572.822ZM896.18 573.009C886.15 574.67 877.522 580.43 873.524 588.132C872.601 589.911 871.638 594.57 871.384 598.487C870.534 611.582 875.592 620.358 887.101 625.755C892.133 628.115 893.82 628.366 904.668 628.366C914.817 628.366 917.381 628.036 921.29 626.229C925.931 624.083 934.168 617.389 934.168 615.764C934.168 615.286 931.415 613.505 928.05 611.806L921.932 608.718L919.3 611.17C915.002 615.173 912.028 616.245 905.168 616.261C897.66 616.279 891.581 613.529 888.828 608.867C886.493 604.915 886.649 596.229 889.128 592.165C894.227 583.801 910.258 582.507 918.421 589.8L921.595 592.637L927.882 589.537C931.339 587.832 934.168 586.137 934.168 585.77C934.168 584.311 927.409 578.554 923.128 576.366C918.508 574.004 908.882 571.771 904.234 571.983C902.823 572.047 899.198 572.509 896.18 573.009ZM995.399 572.977C979.257 575.666 969.992 585.781 969.992 600.713C969.992 612.596 975.172 620.627 986.162 625.783C991.198 628.146 992.778 628.366 1004.67 628.366C1016.11 628.366 1018.28 628.089 1022.77 626.058C1029.23 623.132 1035.64 616.634 1037.63 610.99C1039.48 605.728 1039.56 595.721 1037.8 590.776C1034.54 581.675 1025.01 574.878 1012.67 572.859C1005.78 571.732 1002.75 571.753 995.399 572.977ZM1194.28 572.934C1185.62 574.469 1179.08 578.53 1176.33 584.078C1173.7 589.386 1173.97 593.08 1177.33 597.347C1181.32 602.422 1189.28 605.099 1205.78 606.915C1211.22 607.514 1216.68 608.658 1217.92 609.458C1225.4 614.291 1213.12 619.19 1199.16 616.943C1195.59 616.368 1189.86 614.511 1186.41 612.815L1180.15 609.732L1177.41 612.947C1172.97 618.148 1172.67 619.023 1174.78 620.64C1184.15 627.835 1207.8 631.244 1221.05 627.31C1234.66 623.266 1240.06 610.192 1231.74 601.379C1227.8 597.198 1221.66 595.371 1205.33 593.521C1197.04 592.583 1192.49 591.615 1191.45 590.573C1184.42 583.546 1209.37 581.411 1222.27 587.934L1225.87 589.756L1228.27 586.592C1233.7 579.431 1233.64 580.149 1228.95 577.75C1219.96 573.152 1204.86 571.055 1194.28 572.934ZM1.16785 600.866V627.866H9.16785H17.1678V600.866V573.866H9.16785H1.16785V600.866ZM53.1678 600.866V627.866H60.6678H68.1678V610.126V592.387L85.9278 610.126L103.688 627.866H109.928H116.168V600.866V573.866H108.668H101.168L101.125 590.116L101.082 606.366L85.3748 590.088L69.6678 573.809L61.4178 573.838L53.1678 573.866V600.866ZM363.168 600.866V627.866H371.168H379.168V619.366V610.866H386.991H394.815L402.052 619.366L409.29 627.866H417.729C422.37 627.866 426.147 627.529 426.122 627.116C426.097 626.703 422.769 622.56 418.726 617.909L411.376 609.452L415.064 607.801C422.354 604.538 426.143 597.264 424.816 589.084C423.693 582.163 417.719 576.793 409.082 574.941C406.325 574.35 394.867 573.866 383.619 573.866H363.168V600.866ZM466.168 600.785V627.866H473.668H481.168V619.866V611.866H492.336C511.909 611.866 519.836 609.45 524.894 601.944C529.182 595.581 527.339 583.901 521.291 579.117C515.963 574.902 513.266 574.476 489.418 574.086L466.168 573.705V600.785ZM673.168 600.827V627.95L680.918 627.658L688.668 627.366L688.958 619.116L689.249 610.866H697.022H704.796L711.732 619.358L718.668 627.849L727.418 627.858C732.231 627.862 736.168 627.602 736.168 627.28C736.168 626.958 732.767 622.815 728.611 618.074C721.391 609.838 721.155 609.415 723.331 608.61C727.839 606.942 732.015 602.833 733.709 598.398C737.065 589.611 733.191 580.618 724.276 576.499C720.073 574.556 717.623 574.34 696.418 574.037L673.168 573.705V600.827ZM791.873 582.078C781.702 601.06 769.168 625.756 769.168 626.814C769.168 627.59 771.628 627.857 776.918 627.658L784.668 627.366L787.481 622.116L790.295 616.866H804.523H818.751L821.449 622.366L824.146 627.866H832.157C836.563 627.866 840.159 627.529 840.147 627.116C840.136 626.703 834.096 614.666 826.726 600.366L813.326 574.366L804.82 574.078L796.314 573.79L791.873 582.078ZM1079.62 575.133C1079.35 575.83 1079.25 587.868 1079.4 601.883L1079.67 627.366H1108.17H1136.67L1136.97 621.616L1137.27 615.866H1116.22H1095.17V610.866V605.866H1112.17H1129.17V600.366V594.866H1112.17H1095.17V590.366V585.866H1115.67H1136.17V579.866V573.866H1108.14C1086.43 573.866 1079.99 574.152 1079.62 575.133ZM295.512 585.945C297.627 586.532 300.947 588.47 302.891 590.251C305.846 592.959 306.507 594.339 306.923 598.666C307.817 607.977 303.438 613.767 293.884 615.905C281.819 618.605 271.086 613.167 269.655 603.631C267.642 590.205 280.12 581.671 295.512 585.945ZM609.268 587.497C614.683 590.668 616.668 594.254 616.668 600.866C616.668 610.994 610.408 616.22 598.179 616.304C586.64 616.382 579.168 610.433 579.168 601.168C579.168 590.565 587.159 584.413 599.872 585.23C603.471 585.461 607.416 586.413 609.268 587.497ZM1015.4 587.278C1020.65 589.808 1023.17 594.312 1023.17 601.157C1023.17 605.691 1022.69 607.285 1020.55 609.825C1016.46 614.683 1012.58 616.252 1004.67 616.248C993.191 616.243 987.435 612.135 985.662 602.684C984.92 598.733 987.479 591.492 990.496 589.001C995.714 584.694 1008.25 583.827 1015.4 587.278ZM406.168 587.154C409.345 588.752 410.124 594.152 407.583 596.96C406.05 598.653 404.37 598.866 392.513 598.866H379.168V592.366V585.866L391.418 585.881C399.24 585.89 404.572 586.35 406.168 587.154ZM508.168 587.154C510.129 588.141 510.733 589.304 510.971 592.546C511.445 599.015 509.467 599.866 493.945 599.866H481.168V592.866V585.866L493.418 585.881C501.244 585.89 506.571 586.35 508.168 587.154ZM715.484 587.016C718.359 588.529 719.134 589.807 719.153 593.059C719.18 597.92 716.296 598.866 701.445 598.866H688.168V592.366V585.866H700.734C708.268 585.866 714.174 586.326 715.484 587.016ZM813.118 605.116C813.145 605.529 809.113 605.866 804.158 605.866H795.148L799.782 596.638L804.417 587.411L808.742 595.888C811.121 600.551 813.09 604.703 813.118 605.116ZM894.615 635.644C892.625 638.641 891.372 641.451 891.832 641.887C892.292 642.323 894.317 643.125 896.332 643.669C899.979 644.653 900.024 644.627 905.647 638.262C909.935 633.408 910.86 631.852 909.483 631.806C908.485 631.774 905.545 631.397 902.951 630.97L898.234 630.193L894.615 635.644Z" fill="white"/>
</svg>